<svg width="1200" height="800" viewBox="0 0 1200 800" fill="none" xmlns="http://www.w3.org/2000/svg">
  <rect width="1200" height="800" rx="48" fill="#08111F"/>
  <rect x="90" y="90" width="1020" height="620" rx="40" fill="url(#bg)"/>
  <rect x="210" y="220" width="780" height="320" rx="30" fill="#0F172A" stroke="#38BDF8" stroke-width="4"/>
  <rect x="250" y="265" width="220" height="24" rx="12" fill="#F8FAFC"/>
  <rect x="250" y="310" width="320" height="16" rx="8" fill="#CBD5E1"/>
  <rect x="250" y="340" width="280" height="16" rx="8" fill="#CBD5E1"/>
  <rect x="250" y="370" width="190" height="16" rx="8" fill="#CBD5E1"/>
  <rect x="620" y="255" width="300" height="220" rx="24" fill="#34D399" fill-opacity="0.2"/>
  <path d="M692 390L748 330L804 374L882 286" stroke="#34D399" stroke-width="16" stroke-linecap="round" stroke-linejoin="round"/>
  <circle cx="748" cy="330" r="14" fill="#34D399"/>
  <rect x="240" y="520" width="720" height="80" rx="20" fill="#111827" stroke="#F59E0B" stroke-width="4"/>
  <path d="M300 560H900" stroke="#F8FAFC" stroke-width="12" stroke-linecap="round"/>
  <defs>
    <linearGradient id="bg" x1="140" y1="120" x2="1080" y2="680" gradientUnits="userSpaceOnUse">
      <stop stop-color="#15344A"/>
      <stop offset="1" stop-color="#0A1220"/>
    </linearGradient>
  </defs>
</svg>
