<svg width="1200" height="800" viewBox="0 0 1200 800" fill="none" xmlns="http://www.w3.org/2000/svg">
  <rect width="1200" height="800" rx="48" fill="#111827"/>
  <rect x="90" y="90" width="1020" height="620" rx="40" fill="url(#bg)"/>
  <rect x="220" y="220" width="300" height="320" rx="28" fill="#0F172A" stroke="#38BDF8" stroke-width="4"/>
  <path d="M280 430H420" stroke="#F8FAFC" stroke-width="18" stroke-linecap="round"/>
  <path d="M300 390V470" stroke="#F8FAFC" stroke-width="14" stroke-linecap="round"/>
  <path d="M340 350V510" stroke="#38BDF8" stroke-width="14" stroke-linecap="round"/>
  <path d="M380 370V490" stroke="#F8FAFC" stroke-width="14" stroke-linecap="round"/>
  <rect x="610" y="210" width="320" height="340" rx="30" fill="#0F172A" stroke="#F59E0B" stroke-width="4"/>
  <path d="M650 490C690 430 740 420 780 430C820 440 860 470 900 400" stroke="#F59E0B" stroke-width="16" stroke-linecap="round"/>
  <circle cx="650" cy="490" r="12" fill="#F59E0B"/>
  <circle cx="900" cy="400" r="12" fill="#F59E0B"/>
  <circle cx="780" cy="430" r="12" fill="#FCD34D"/>
  <path d="M690 560H860" stroke="#F8FAFC" stroke-width="12" stroke-linecap="round"/>
  <defs>
    <linearGradient id="bg" x1="140" y1="120" x2="1080" y2="680" gradientUnits="userSpaceOnUse">
      <stop stop-color="#1F2937"/>
      <stop offset="1" stop-color="#0B1120"/>
    </linearGradient>
  </defs>
</svg>
