<svg width="1200" height="800" viewBox="0 0 1200 800" fill="none" xmlns="http://www.w3.org/2000/svg">
  <rect width="1200" height="800" rx="48" fill="#0B1020"/>
  <rect x="82" y="90" width="1036" height="620" rx="40" fill="url(#bg)"/>
  <rect x="180" y="200" width="220" height="320" rx="24" fill="#0F172A" stroke="#F59E0B" stroke-width="4"/>
  <rect x="220" y="250" width="140" height="20" rx="10" fill="#F8FAFC"/>
  <rect x="220" y="290" width="110" height="14" rx="7" fill="#CBD5E1"/>
  <rect x="220" y="320" width="128" height="14" rx="7" fill="#CBD5E1"/>
  <rect x="220" y="360" width="90" height="14" rx="7" fill="#CBD5E1"/>
  <rect x="470" y="180" width="500" height="360" rx="32" fill="#0F172A" stroke="#38BDF8" stroke-width="4"/>
  <rect x="510" y="230" width="180" height="120" rx="20" fill="#38BDF8" fill-opacity="0.2"/>
  <rect x="720" y="230" width="220" height="120" rx="20" fill="#34D399" fill-opacity="0.2"/>
  <rect x="510" y="380" width="430" height="90" rx="20" fill="#F8FAFC" fill-opacity="0.08"/>
  <path d="M630 290H690" stroke="#38BDF8" stroke-width="10" stroke-linecap="round"/>
  <path d="M800 290H840" stroke="#34D399" stroke-width="10" stroke-linecap="round"/>
  <rect x="240" y="560" width="720" height="90" rx="22" fill="#111827" stroke="#F8FAFC" stroke-width="4"/>
  <path d="M320 600H820" stroke="#F8FAFC" stroke-width="12" stroke-linecap="round"/>
  <defs>
    <linearGradient id="bg" x1="140" y1="120" x2="1080" y2="680" gradientUnits="userSpaceOnUse">
      <stop stop-color="#172033"/>
      <stop offset="1" stop-color="#0A1120"/>
    </linearGradient>
  </defs>
</svg>
