<svg width="1200" height="800" viewBox="0 0 1200 800" fill="none" xmlns="http://www.w3.org/2000/svg">
  <rect width="1200" height="800" rx="48" fill="#07111F"/>
  <rect x="70" y="70" width="1060" height="660" rx="36" fill="url(#bg)"/>
  <rect x="150" y="180" width="300" height="360" rx="28" fill="#0F2339" stroke="#38BDF8" stroke-width="4"/>
  <rect x="190" y="240" width="220" height="24" rx="12" fill="#38BDF8" fill-opacity="0.8"/>
  <rect x="190" y="288" width="180" height="16" rx="8" fill="#D7F3FF" fill-opacity="0.8"/>
  <rect x="190" y="320" width="200" height="16" rx="8" fill="#D7F3FF" fill-opacity="0.6"/>
  <rect x="190" y="368" width="150" height="16" rx="8" fill="#D7F3FF" fill-opacity="0.6"/>
  <circle cx="760" cy="270" r="120" fill="#0F2339" stroke="#34D399" stroke-width="4"/>
  <path d="M760 210C760 210 734 235 734 264C734 293 760 320 760 320C760 320 786 293 786 264C786 235 760 210 760 210Z" fill="#34D399"/>
  <rect x="620" y="430" width="280" height="140" rx="24" fill="#0F2339" stroke="#F59E0B" stroke-width="4"/>
  <rect x="650" y="470" width="100" height="16" rx="8" fill="#FCD34D"/>
  <rect x="650" y="500" width="180" height="16" rx="8" fill="#FDE68A"/>
  <rect x="650" y="530" width="130" height="16" rx="8" fill="#FDE68A"/>
  <path d="M270 620C270 569 311 528 362 528H418C469 528 510 569 510 620V636H270V620Z" fill="#38BDF8" fill-opacity="0.9"/>
  <rect x="300" y="560" width="180" height="70" rx="20" fill="#0B1727" stroke="#38BDF8" stroke-width="4"/>
  <path d="M380 560V520" stroke="#38BDF8" stroke-width="8" stroke-linecap="round"/>
  <path d="M360 540H400" stroke="#38BDF8" stroke-width="8" stroke-linecap="round"/>
  <defs>
    <linearGradient id="bg" x1="120" y1="100" x2="1040" y2="680" gradientUnits="userSpaceOnUse">
      <stop stop-color="#12324A"/>
      <stop offset="1" stop-color="#0A1629"/>
    </linearGradient>
  </defs>
</svg>
